<mxfile host="app.diagrams.net" modified="2023-12-06T18:14:25.137Z" agent="Mozilla/5.0 (Windows NT 10.0; Win64; x64) AppleWebKit/537.36 (KHTML, like Gecko) Chrome/119.0.0.0 Safari/537.36 Edg/119.0.0.0" version="22.1.7" etag="x5XTxbY37C3hIikjtkiN" type="github">
  <diagram name="PÃ¡gina-1" id="6d1Eyg4vCVDs2mai2TM4">
    <mxGraphModel>
      <root>
        <mxCell id="0" />
        <mxCell id="1" parent="0" />
      </root>
    </mxGraphModel>
  </diagram>
</mxfile>
